<svg width="30" height="32" viewBox="0 0 30 32" fill="none" xmlns="http://www.w3.org/2000/svg">
<path d="M14.9994 21.5623C13.5683 21.5623 12.1959 20.9938 11.184 19.9819C10.172 18.9699 9.60355 17.5975 9.60355 16.1664C9.60355 14.7354 10.172 13.3629 11.184 12.351C12.1959 11.3391 13.5683 10.7706 14.9994 10.7706C16.4305 10.7706 17.8029 11.3391 18.8148 12.351C19.8267 13.3629 20.3952 14.7354 20.3952 16.1664C20.3952 17.5975 19.8267 18.9699 18.8148 19.9819C17.8029 20.9938 16.4305 21.5623 14.9994 21.5623ZM26.454 17.6618C26.5156 17.1685 26.5619 16.6752 26.5619 16.1664C26.5619 15.6577 26.5156 15.1489 26.454 14.6248L29.7069 12.1118C29.9998 11.8806 30.0769 11.4643 29.8919 11.1252L26.8086 5.79101C26.6236 5.45184 26.2073 5.31309 25.8681 5.45184L22.0294 6.99351C21.2277 6.39226 20.3952 5.86809 19.424 5.48268L18.8536 1.39726C18.8222 1.21568 18.7277 1.05104 18.5866 0.932526C18.4455 0.814009 18.267 0.749263 18.0827 0.749759H11.9161C11.5306 0.749759 11.2069 1.02726 11.1452 1.39726L10.5748 5.48268C9.60355 5.86809 8.77105 6.39226 7.96939 6.99351L4.13064 5.45184C3.79147 5.31309 3.37522 5.45184 3.19022 5.79101L0.106886 11.1252C-0.0935305 11.4643 -0.0010303 11.8806 0.291886 12.1118L3.5448 14.6248C3.48314 15.1489 3.43689 15.6577 3.43689 16.1664C3.43689 16.6752 3.48314 17.1685 3.5448 17.6618L0.291886 20.221C-0.0010303 20.4523 -0.0935305 20.8685 0.106886 21.2077L3.19022 26.5418C3.37522 26.881 3.79147 27.0043 4.13064 26.881L7.96939 25.3239C8.77105 25.9406 9.60355 26.4648 10.5748 26.8502L11.1452 30.9356C11.2069 31.3056 11.5306 31.5831 11.9161 31.5831H18.0827C18.4681 31.5831 18.7919 31.3056 18.8536 30.9356L19.424 26.8502C20.3952 26.4493 21.2277 25.9406 22.0294 25.3239L25.8681 26.881C26.2073 27.0043 26.6236 26.881 26.8086 26.5418L29.8919 21.2077C30.0769 20.8685 29.9998 20.4523 29.7069 20.221L26.454 17.6618Z" fill="black"/>
</svg>
