<svg width="46" height="46" viewBox="0 0 46 46" fill="none" xmlns="http://www.w3.org/2000/svg">
<g filter="url(#filter0_d_174_150)">
<g clip-path="url(#clip0_174_150)">
<path d="M41.0693 19.3706C41.0693 18.1179 40.9678 16.8584 40.7511 15.626H23.3687V22.7225H33.3227C32.9097 25.0112 31.5825 27.0359 29.6391 28.3225V32.9271H35.5777C39.065 29.7174 41.0693 24.9774 41.0693 19.3706Z" fill="#4285F4"/>
<path d="M23.3686 37.376C28.3389 37.376 32.5304 35.7441 35.5844 32.9271L29.6458 28.3225C27.9935 29.4466 25.8605 30.0831 23.3754 30.0831C18.5676 30.0831 14.4912 26.8396 13.0286 22.4788H6.90039V27.2256C10.0288 33.4485 16.4008 37.376 23.3686 37.376Z" fill="#34A853"/>
<path d="M13.0217 22.4787C12.2498 20.1899 12.2498 17.7116 13.0217 15.4228V10.676H6.90028C4.28649 15.8833 4.28649 22.0182 6.90028 27.2255L13.0217 22.4787Z" fill="#FBBC04"/>
<path d="M23.3686 7.8117C25.996 7.77107 28.5353 8.75971 30.438 10.5745L35.6995 5.31303C32.3679 2.1846 27.9461 0.464648 23.3686 0.51882C16.4008 0.51882 10.0288 4.44628 6.90039 10.676L13.0218 15.4228C14.4777 11.0552 18.5609 7.8117 23.3686 7.8117Z" fill="#EA4335"/>
</g>
</g>
<defs>
<filter id="filter0_d_174_150" x="0.571289" y="0.517578" width="44.8569" height="44.8572" filterUnits="userSpaceOnUse" color-interpolation-filters="sRGB">
<feFlood flood-opacity="0" result="BackgroundImageFix"/>
<feColorMatrix in="SourceAlpha" type="matrix" values="0 0 0 0 0 0 0 0 0 0 0 0 0 0 0 0 0 0 127 0" result="hardAlpha"/>
<feOffset dy="4"/>
<feGaussianBlur stdDeviation="2"/>
<feComposite in2="hardAlpha" operator="out"/>
<feColorMatrix type="matrix" values="0 0 0 0 0 0 0 0 0 0 0 0 0 0 0 0 0 0 0.25 0"/>
<feBlend mode="normal" in2="BackgroundImageFix" result="effect1_dropShadow_174_150"/>
<feBlend mode="normal" in="SourceGraphic" in2="effect1_dropShadow_174_150" result="shape"/>
</filter>
<clipPath id="clip0_174_150">
<rect width="36.8571" height="36.8571" fill="white" transform="translate(4.57129 0.517578)"/>
</clipPath>
</defs>
</svg>
