<svg width="44" height="44" viewBox="0 0 44 44" fill="none" xmlns="http://www.w3.org/2000/svg">
<path d="M0.428223 21.9462C0.428223 10.0721 10.0541 0.446167 21.9282 0.446167C33.8023 0.446167 43.4282 10.0721 43.4282 21.9462C43.4282 33.8203 33.8023 43.4462 21.9282 43.4462C10.0541 43.4462 0.428223 33.8203 0.428223 21.9462Z" fill="#FFE812"/>
<path d="M21.9281 10.3003C14.0119 10.3003 7.59473 15.3601 7.59473 21.6016C7.59473 25.6368 10.2776 29.1776 14.3132 31.177C14.0936 31.9341 12.9024 36.0481 12.8549 36.3713C12.8549 36.3713 12.8264 36.6141 12.9836 36.7067C13.1409 36.7993 13.3258 36.7274 13.3258 36.7274C13.7768 36.6644 18.5552 33.3079 19.3823 32.7251C20.2085 32.8421 21.0593 32.9029 21.9281 32.9029C29.8442 32.9029 36.2614 27.8432 36.2614 21.6016C36.2614 15.3601 29.8442 10.3003 21.9281 10.3003Z" fill="#381F1F"/>
<path fill-rule="evenodd" clip-rule="evenodd" d="M14.0034 25.5468C13.5473 25.5468 13.1764 25.1926 13.1764 24.7571V19.8445H11.8862C11.4387 19.8445 11.0747 19.4811 11.0747 19.0348C11.0747 18.5884 11.4388 18.2251 11.8862 18.2251H16.1206C16.568 18.2251 16.932 18.5884 16.932 19.0348C16.932 19.4811 16.568 19.8445 16.1206 19.8445H14.8303V24.7571C14.8303 25.1926 14.4594 25.5468 14.0034 25.5468ZM21.2543 25.5361C20.9095 25.5361 20.6458 25.3961 20.5662 25.1709L20.1568 24.0989L17.6352 24.0987L17.2255 25.1714C17.1462 25.3962 16.8826 25.5361 16.5378 25.5361C16.3564 25.5363 16.177 25.4973 16.0121 25.422C15.7841 25.3168 15.565 25.0276 15.8161 24.2477L17.7941 19.0414C17.9335 18.6454 18.3567 18.2375 18.8953 18.2252C19.4354 18.2374 19.8586 18.6454 19.9983 19.0422L21.9755 24.2462C22.2271 25.0279 22.008 25.3172 21.78 25.422C21.615 25.4973 21.4357 25.5362 21.2543 25.5361ZM18.896 20.2878L19.7219 22.6341H18.07L18.896 20.2878ZM23.3062 25.4263C22.8692 25.4263 22.5138 25.0861 22.5138 24.6682V19.052C22.5138 18.596 22.8925 18.2251 23.3579 18.2251C23.8233 18.2251 24.2021 18.596 24.2021 19.052V23.9101H25.9592C26.3963 23.9101 26.7518 24.2503 26.7518 24.6682C26.7518 25.0861 26.3963 25.4263 25.9592 25.4263H23.3062ZM27.0734 24.7091C27.0734 25.1652 27.4443 25.5361 27.9003 25.5361C28.1196 25.5357 28.3299 25.4485 28.485 25.2934C28.64 25.1383 28.7273 24.9281 28.7275 24.7087V22.9045L29.0145 22.6175L30.9538 25.1871C31.0306 25.2896 31.1303 25.3728 31.245 25.4299C31.3597 25.487 31.4862 25.5164 31.6143 25.5158C31.794 25.5162 31.9688 25.4576 32.1117 25.3489C32.1986 25.2837 32.2717 25.202 32.3268 25.1084C32.3818 25.0148 32.4178 24.9111 32.4325 24.8036C32.448 24.696 32.4419 24.5865 32.4146 24.4813C32.3874 24.3762 32.3395 24.2774 32.2738 24.1909L30.2383 21.4944L32.1228 19.6101C32.2523 19.4805 32.3172 19.3017 32.3052 19.1067C32.2933 18.9134 32.207 18.7272 32.0621 18.5824C31.9068 18.4273 31.6995 18.3382 31.4931 18.3382C31.3161 18.3382 31.153 18.4035 31.0344 18.5222L28.7273 20.8294V19.052C28.7273 18.596 28.3564 18.2251 27.9003 18.2251C27.4443 18.2251 27.0734 18.596 27.0734 19.052V24.7091Z" fill="#FFE812"/>
</svg>
