<svg xmlns="http://www.w3.org/2000/svg" width="771.43811pt" height="300pt" viewBox="0 0 771.43811 300.00001"><path fill="#ffe000" d="M110.666-67.45h-462.865c-85.21 0-154.28-67.151-154.28-150.006 0-82.842 69.07-149.994 154.28-149.994h462.865c85.21 0 154.293 67.152 154.293 149.994 0 82.855-69.083 150.006-154.293 150.006" style="stroke-width:13.2293" transform="translate(506.479 367.45)"/><path d="M-307.078-296.185c-46.514 0-84.204 28.959-84.204 64.678 0 21.431 13.613 40.402 34.515 52.176l-9.909 35.997c-.952 3.453 3.003 6.204 6.06 4.207l43.008-28.231c3.452.33 6.958.529 10.53.529 46.514 0 84.204-28.96 84.204-64.678 0-35.72-37.69-64.678-84.204-64.678M-143.484-262.273v63.54c1.588.198 5.596.582 9.393.582 20.783 0 28.774-14.182 28.774-36.526 0-19.632-5.384-31.486-21.974-31.486-5.397 0-11.39 1.561-16.193 3.89m0 83.357v39.834h-29.17V-285.98h20.571l3.599 9.327c6.204-6.02 15.584-12.436 30.784-12.436 28.575 0 42.175 20.796 41.963 54.412 0 35.163-20.981 57.706-50.959 57.706-5.794 0-10.186-.397-16.788-1.945M2.692-207.086v-19.434h-13.388c-15.002 0-22.596 5.252-22.596 15.743 0 7.964 4.207 11.853 12.793 11.853 8.004 0 18.203-3.889 23.19-8.162m-16.589-37.505h16.59v-3.492c0-11.669-6.787-17.106-18.587-17.106-8.996 0-20.585 2.527-29.978 6.998l-8.003-19.05c10.398-6.985 26.392-11.84 40.574-11.84 27.98 0 43.18 14.367 43.18 41.765v67.43H9.293L6.29-188.83c-11.787 8.361-22.582 11.854-32.372 11.854-21.391 0-33.377-12.436-33.377-33.417 0-22.345 15.98-34.198 45.561-34.198M115.576-190.768c-10.187 26.432-22.384 45.668-40.164 56.344L57.42-150.551c10.398-8.744 17.78-17.29 24.183-28.747L42.828-282.09l28.972-7.58 24.792 83.357 24.58-83.741 28.588 7.765z" style="stroke-width:13.2293" transform="translate(506.479 367.45)"/></svg>