<svg width="178" height="79" viewBox="0 0 178 79" fill="none" xmlns="http://www.w3.org/2000/svg">
<g clip-path="url(#clip0_165_308)">
<path d="M174.742 3.11391V75.8861H116.527C116.348 75.637 116.138 75.3879 115.895 75.1699C114.808 74.1112 113.43 73.5507 111.89 73.5507C110.35 73.5507 108.972 74.1112 107.902 75.1699C107.675 75.4034 107.465 75.637 107.27 75.8861H3.24226V3.11391H107.286C107.465 3.36303 107.675 3.61214 107.902 3.83011C108.989 4.88884 110.366 5.44935 111.907 5.44935C113.447 5.44935 114.857 4.87328 115.895 3.83011C116.121 3.59657 116.332 3.36303 116.511 3.11391H174.725M177.984 0H114.29C114.29 0.638352 114.063 1.19886 113.593 1.65037C113.139 2.10189 112.571 2.33544 111.907 2.33544C111.242 2.33544 110.675 2.10189 110.204 1.65037C109.75 1.19886 109.507 0.653922 109.507 0H0V79H109.523C109.523 79 109.523 79 109.523 78.9689C109.523 78.3461 109.75 77.8011 110.221 77.3341C110.691 76.8825 111.242 76.649 111.907 76.649C112.571 76.649 113.139 76.8825 113.609 77.3341C114.079 77.7856 114.306 78.3305 114.306 78.9844H178V0H177.984Z" fill="#6E30BF"/>
<path d="M20.4604 54.2132V68.148H16.2775V54.2132H14.4941V50.3831H16.2775V43.875H20.4604V50.3831H23.7192V54.2132H20.4604Z" fill="black"/>
<path d="M24.8218 43.003C24.8218 42.2868 25.0812 41.664 25.6161 41.1347C26.1511 40.6053 26.7833 40.3562 27.5291 40.3562C28.2748 40.3562 28.9394 40.6209 29.4582 41.1347C29.9932 41.6485 30.2526 42.2713 30.2526 43.0186C30.2526 43.7659 29.977 44.3887 29.4582 44.9181C28.9394 45.4475 28.291 45.6966 27.5453 45.6966C26.7996 45.6966 26.1349 45.4319 25.6161 44.9181C25.0812 44.3887 24.8218 43.7504 24.8218 43.003ZM29.6527 50.383V68.1479H25.4702V50.383H29.6527Z" fill="black"/>
<path d="M47.9575 51.1461V56.5954C47.001 55.4589 46.1417 54.6648 45.3959 54.2444C44.6501 53.8085 43.7747 53.5905 42.7695 53.5905C41.1968 53.5905 39.8836 54.1354 38.846 55.2097C37.8084 56.2996 37.2895 57.6542 37.2895 59.2734C37.2895 60.8926 37.7921 62.3095 38.7973 63.3838C39.8187 64.4581 41.1158 64.9874 42.6884 64.9874C43.6936 64.9874 44.5853 64.7695 45.3473 64.3491C46.0931 63.9287 46.9686 63.1347 47.9738 61.9358V67.354C46.2714 68.2103 44.5691 68.6463 42.8667 68.6463C40.0619 68.6463 37.7111 67.7588 35.8304 65.9839C33.9497 64.1934 32.9932 61.9825 32.9932 59.3201C32.9932 56.6577 33.9497 54.4313 35.8628 52.6096C37.7759 50.788 40.1268 49.8694 42.8992 49.8694C44.6826 49.8694 46.3687 50.2898 47.9575 51.1305V51.1461Z" fill="black"/>
<path d="M56.0945 37.3359V56.1284L61.996 50.3832H67.6218L59.7424 57.841L68.1892 68.1481H62.758L56.7592 60.6435L56.0945 61.2974V68.1325H51.9116V37.3203H56.0945V37.3359Z" fill="black"/>
<path d="M85.6834 60.2386H72.6808C72.7943 61.7022 73.2806 62.8543 74.1399 63.7262C74.9992 64.5826 76.1017 65.0029 77.4311 65.0029C78.4687 65.0029 79.328 64.7538 80.0252 64.2712C80.6899 63.7885 81.4519 62.8855 82.3112 61.5776L85.8455 63.5083C85.2943 64.4269 84.7269 65.2053 84.1108 65.8593C83.4947 66.5132 82.8462 67.0425 82.149 67.4629C81.4519 67.8833 80.7061 68.1947 79.8955 68.3815C79.0848 68.5684 78.2093 68.6773 77.269 68.6773C74.5615 68.6773 72.3889 67.821 70.7515 66.1239C69.114 64.4113 68.2871 62.1381 68.2871 59.3045C68.2871 56.4708 69.0815 54.2132 70.6704 52.485C72.2755 50.7723 74.3993 49.916 77.042 49.916C79.6847 49.916 81.8248 50.7568 83.3812 52.4227C84.9214 54.0731 85.6834 56.3774 85.6834 59.3045V60.2698V60.2386ZM81.387 56.8756C80.8034 54.6803 79.3929 53.5904 77.1555 53.5904C76.6529 53.5904 76.1665 53.6683 75.7288 53.824C75.2748 53.9797 74.8695 54.1976 74.5128 54.4779C74.1399 54.7582 73.8319 55.1007 73.5725 55.5055C73.3131 55.9103 73.1185 56.3618 72.9726 56.8756H81.387Z" fill="black"/>
<path d="M93.8242 54.2132V68.148H89.6413V54.2132H87.8579V50.3831H89.6413V43.875H93.8242V50.3831H97.083V54.2132H93.8242Z" fill="black"/>
<path d="M126.654 21.0034C126.654 18.4345 127.595 16.2547 129.459 14.4487C131.34 12.6426 133.626 11.7551 136.317 11.7551C139.008 11.7551 141.327 12.6582 143.208 14.4798C145.072 16.2859 145.996 18.5123 145.996 21.1591C145.996 23.806 145.056 26.048 143.191 27.8541C141.311 29.6446 138.992 30.532 136.252 30.532C133.512 30.532 131.259 29.6134 129.427 27.7918C127.595 25.9857 126.671 23.7281 126.671 21.0034H126.654ZM130.934 21.0657C130.934 22.8407 131.421 24.2419 132.394 25.2851C133.383 26.3282 134.696 26.8576 136.317 26.8576C137.938 26.8576 139.268 26.3438 140.241 25.3007C141.213 24.2731 141.716 22.8874 141.716 21.1591C141.716 19.4309 141.23 18.0452 140.241 17.0176C139.252 15.9745 137.938 15.4451 136.317 15.4451C134.696 15.4451 133.415 15.9745 132.426 17.0176C131.437 18.0608 130.934 19.4154 130.934 21.0657Z" fill="black"/>
<path d="M149.335 12.2377H153.534V13.8725C154.993 12.4557 156.647 11.7395 158.495 11.7395C160.603 11.7395 162.257 12.3934 163.424 13.6857C164.445 14.7911 164.948 16.5972 164.948 19.1039V30.0026H160.749V20.0692C160.749 18.3254 160.506 17.111 160.003 16.4415C159.517 15.7565 158.641 15.4139 157.36 15.4139C155.966 15.4139 154.977 15.8654 154.393 16.7685C153.826 17.6559 153.534 19.2129 153.534 21.4238V30.0026H149.335V12.2377Z" fill="black"/>
<path d="M109.534 14.6665C109.534 14.0438 109.761 13.4988 110.231 13.0317C110.701 12.5802 111.252 12.3467 111.917 12.3467C112.581 12.3467 113.149 12.5802 113.619 13.0317C114.089 13.4833 114.316 14.0282 114.316 14.6821C114.316 15.336 114.089 15.881 113.619 16.3481C113.165 16.7996 112.598 17.0331 111.933 17.0331C111.268 17.0331 110.701 16.7996 110.231 16.3481C109.761 15.8965 109.534 15.336 109.534 14.6665Z" fill="#6E30BF"/>
<path d="M109.534 24.6622C109.534 24.0394 109.761 23.4944 110.231 23.0273C110.701 22.5758 111.252 22.3423 111.917 22.3423C112.581 22.3423 113.149 22.5758 113.619 23.0273C114.089 23.4789 114.316 24.0238 114.316 24.6777C114.316 25.3316 114.089 25.8766 113.619 26.3437C113.165 26.7952 112.598 27.0287 111.933 27.0287C111.268 27.0287 110.701 26.7952 110.231 26.3437C109.761 25.8921 109.534 25.3316 109.534 24.6622Z" fill="#6E30BF"/>
<path d="M109.534 34.6578C109.534 34.035 109.761 33.49 110.231 33.0229C110.701 32.5714 111.252 32.3379 111.917 32.3379C112.581 32.3379 113.149 32.5714 113.619 33.0229C114.089 33.4745 114.316 34.0194 114.316 34.6733C114.316 35.3272 114.089 35.8722 113.619 36.3393C113.165 36.7908 112.598 37.0243 111.933 37.0243C111.268 37.0243 110.701 36.7908 110.231 36.3393C109.761 35.8878 109.534 35.3272 109.534 34.6578Z" fill="#6E30BF"/>
<path d="M109.534 44.6536C109.534 44.0308 109.761 43.4859 110.231 43.0188C110.701 42.5673 111.252 42.3337 111.917 42.3337C112.581 42.3337 113.149 42.5673 113.619 43.0188C114.089 43.4703 114.316 44.0153 114.316 44.6692C114.316 45.3231 114.089 45.868 113.619 46.3351C113.165 46.7866 112.598 47.0202 111.933 47.0202C111.268 47.0202 110.701 46.7866 110.231 46.3351C109.761 45.8836 109.534 45.3231 109.534 44.6536Z" fill="#6E30BF"/>
<path d="M109.534 54.6492C109.534 54.0264 109.761 53.4815 110.231 53.0144C110.701 52.5629 111.252 52.3293 111.917 52.3293C112.581 52.3293 113.149 52.5629 113.619 53.0144C114.089 53.4659 114.316 54.0109 114.316 54.6648C114.316 55.3187 114.089 55.8636 113.619 56.3307C113.165 56.7822 112.598 57.0158 111.933 57.0158C111.268 57.0158 110.701 56.7822 110.231 56.3307C109.761 55.8792 109.534 55.3187 109.534 54.6492Z" fill="#6E30BF"/>
<path d="M109.534 64.6448C109.534 64.022 109.761 63.4771 110.231 63.01C110.701 62.5585 111.252 62.325 111.917 62.325C112.581 62.325 113.149 62.5585 113.619 63.01C114.089 63.4615 114.316 64.0065 114.316 64.6604C114.316 65.3143 114.089 65.8592 113.619 66.3263C113.165 66.7778 112.598 67.0114 111.933 67.0114C111.268 67.0114 110.701 66.7778 110.231 66.3263C109.761 65.8748 109.534 65.3143 109.534 64.6448Z" fill="#6E30BF"/>
</g>
<defs>
<clipPath id="clip0_165_308">
<rect width="178" height="79" fill="white"/>
</clipPath>
</defs>
</svg>
