<?xml version="1.0" encoding="UTF-8"?>
<svg xmlns="http://www.w3.org/2000/svg" xmlns:xlink="http://www.w3.org/1999/xlink" width="16px" height="9px" viewBox="0 0 16 9" version="1.1">
<g id="surface1">
<path style=" stroke:none;fill-rule:nonzero;fill:rgb(0%,0%,0%);fill-opacity:1;" d="M 0.0507812 4.433594 C 0.0507812 3.210938 0.441406 2.175781 1.21875 1.316406 C 2 0.460938 2.949219 0.0390625 4.070312 0.0390625 C 5.191406 0.0390625 6.15625 0.46875 6.9375 1.332031 C 7.714844 2.191406 8.097656 3.25 8.097656 4.507812 C 8.097656 5.765625 7.707031 6.832031 6.929688 7.6875 C 6.148438 8.539062 5.183594 8.960938 4.042969 8.960938 C 2.902344 8.960938 1.964844 8.527344 1.203125 7.660156 C 0.441406 6.800781 0.0585938 5.726562 0.0585938 4.433594 Z M 1.832031 4.464844 C 1.832031 5.304688 2.035156 5.972656 2.4375 6.46875 C 2.851562 6.964844 3.394531 7.214844 4.070312 7.214844 C 4.746094 7.214844 5.296875 6.972656 5.703125 6.476562 C 6.109375 5.988281 6.316406 5.328125 6.316406 4.507812 C 6.316406 3.6875 6.113281 3.027344 5.703125 2.539062 C 5.292969 2.042969 4.746094 1.792969 4.070312 1.792969 C 3.394531 1.792969 2.863281 2.042969 2.453125 2.539062 C 2.039062 3.035156 1.832031 3.679688 1.832031 4.464844 Z M 1.832031 4.464844 "/>
<path style=" stroke:none;fill-rule:nonzero;fill:rgb(0%,0%,0%);fill-opacity:1;" d="M 9.453125 0.398438 L 11.199219 0.398438 L 11.199219 1.175781 C 11.808594 0.5 12.496094 0.160156 13.265625 0.160156 C 14.140625 0.160156 14.828125 0.472656 15.316406 1.085938 C 15.738281 1.609375 15.949219 2.46875 15.949219 3.660156 L 15.949219 8.839844 L 14.203125 8.839844 L 14.203125 4.117188 C 14.203125 3.289062 14.101562 2.714844 13.890625 2.394531 C 13.691406 2.070312 13.324219 1.90625 12.792969 1.90625 C 12.210938 1.90625 11.800781 2.121094 11.558594 2.550781 C 11.320312 2.972656 11.199219 3.710938 11.199219 4.761719 L 11.199219 8.839844 L 9.453125 8.839844 Z M 9.453125 0.398438 "/>
</g>
</svg>
