<svg width="236" height="131" viewBox="0 0 236 131" fill="none" xmlns="http://www.w3.org/2000/svg">
<path d="M0.747559 64.5306C0.747559 46.7593 6.51805 31.6806 17.9596 19.1868C29.5007 6.69302 43.5291 0.553833 60.0448 0.553833C76.5604 0.553833 90.7878 6.80073 102.329 19.4022C113.77 31.896 119.441 47.2978 119.441 65.6077C119.441 83.9175 113.671 99.427 102.229 111.921C90.6883 124.307 76.4609 130.446 59.6468 130.446C42.8326 130.446 29.0033 124.092 17.7607 111.49C6.51808 98.9962 0.846996 83.379 0.846996 64.5306H0.747559ZM27.0134 64.9614C27.0134 77.2398 29.9982 86.9333 35.9677 94.1495C42.0367 101.366 50.0956 105.028 60.0448 105.028C69.994 105.028 78.1523 101.473 84.1218 94.2572C90.0913 87.1487 93.1756 77.5629 93.1756 65.6077C93.1756 53.6524 90.1908 44.0667 84.1218 36.9581C78.0528 29.7419 69.994 26.0799 60.0448 26.0799C50.0956 26.0799 42.2357 29.7419 36.1667 36.9581C30.0977 44.1744 27.0134 53.5447 27.0134 64.9614Z" fill="black"/>
<path d="M139.441 5.7775H165.21V17.0865C174.164 7.28536 184.312 2.33093 195.654 2.33093C208.588 2.33093 218.737 6.85454 225.9 15.7941C232.168 23.4411 235.252 35.9349 235.252 53.2754V128.669H209.484V59.9531C209.484 47.8902 207.991 39.4892 204.907 34.8579C201.922 30.1188 196.55 27.7493 188.69 27.7493C180.134 27.7493 174.065 30.8728 170.483 37.1197C167.001 43.2589 165.21 54.0294 165.21 69.3235V128.669H139.441V5.7775Z" fill="black"/>
</svg>
